<svg xmlns="http://www.w3.org/2000/svg" width="23" height="13" fill="none" viewBox="0 0 23 13">
  <path fill="#fff" d="M17.12 4.38a2.997 2.997 0 1 0-4.24 4.24 2.997 2.997 0 1 0 4.24-4.24ZM7 .5v12h16V.5H7Zm14 8c-.53 0-1.04.21-1.41.59-.38.37-.59.88-.59 1.41h-8c0-.53-.21-1.04-.59-1.41-.37-.38-.88-.59-1.41-.59v-4c.53 0 1.04-.21 1.41-.59.38-.37.59-.88.59-1.41h8c0 .53.21 1.04.59 1.41.37.38.88.59 1.41.59v4Zm-16-6H3c-.55 0-1-.45-1-1s.45-1 1-1h2v2Zm0 5H2c-.55 0-1-.45-1-1s.45-1 1-1h3v2Zm0 5H1c-.552 0-1-.45-1-1s.448-1 1-1h4v2Z"/>
</svg>
